{"title":"Bad Country(2014)MPEG-4[DaScubaDude]","uid":15206766,"size":1166044681,"categoryP":"video","categoryS":"movies","magnet":"?xt=urn:btih:af7a555dd0c79780d725d72a56d9ce84e61a4281&amp;dn=Bad+Country%282014%29MPEG-4%5BDaScubaDude%5D&amp;tr=udp%3A%2F%2Ftracker.leechers-paradise.org%3A6969&amp;tr=udp%3A%2F%2Fzer0day.ch%3A1337&amp;tr=udp%3A%2F%2Fopen.demonii.com%3A1337&amp;tr=udp%3A%2F%2Ftracker.coppersurfer.tk%3A6969&amp;tr=udp%3A%2F%2Fexodus.desync.com%3A6969","seeders":1,"leechers":0,"uploader":"dascuba","files":1,"time":1467632178,"description":"Bad Country (2014)\r\n1h 35min | Action, Crime, Drama | 29 April 2014 (USA)\r\nWhen Baton Rouge police detective Bud Carter busts contract killer Jesse Weiland, he convinces Jesse to become an informant and rat out the South's most powerful crime ring. So when the ...\r\nDirector: Chris Brinker\r\nWriters: Jonathan Hirschbein (screenplay), Tom Abernathy (story) |\r\nStars: Matt Dillon, Willem Dafoe, Neal McDonough |\r\n\r\nGeneral\r\nComplete name                            : Bad CountryBAD_COUNTRY_Title1.mp4\r\nFormat                                   : MPEG-4\r\nFormat profile                           : Base Media\r\nCodec ID                                 : isom (isom/iso2/avc1/mp41)\r\nFile size                                : 1.09 GiB\r\nDuration                                 : 1h 44mn\r\nOverall bit rate                         : 1 491 Kbps\r\nMovie name                               : BAD_COUNTRY\r\nGenre                                    : Action\r\nWriting application                      : Lavf54.6.100\r\n\r\nVideo\r\nID                                       : 1\r\nFormat                                   : AVC\r\nFormat/Info                              : Advanced Video Codec\r\nFormat profile                           :   \r\nFormat settings, CABAC                   : No\r\nFormat settings, ReFrames                : 6 frames\r\nCodec ID                                 : avc1\r\nCodec ID/Info                            : Advanced Video Coding\r\nDuration                                 : 1h 44mn\r\nBit rate                                 : 1 203 Kbps\r\nWidth                                    : 720 pixels\r\nHeight                                   : 404 pixels\r\nDisplay aspect ratio                     : 16:9\r\nFrame rate mode                          : Constant\r\nFrame rate                               : 29.970 (30000/1001) fps\r\nColor space                              : YUV\r\nChroma subsampling                       : 4:2:0\r\nBit depth                                : 8 bits\r\nScan type                                : Progressive\r\nBits/(Pixel*Frame)                       : 0.138\r\nStream size                              : 897 MiB (81%)\r\n\r\nAudio\r\nID                                       : 2\r\nFormat                                   : AAC\r\nFormat/Info                              : Advanced Audio Codec\r\nFormat profile                           : LC\r\nCodec ID                                 : 40\r\nDuration                                 : 1h 44mn\r\nBit rate mode                            : Constant\r\nBit rate                                 : 281 Kbps\r\nChannel(s)                               : 2 channels\r\nChannel(s)_Original                      : 6 channels\r\nChannel positions                        : Front: L C R, Side: L R, LFE\r\nSampling rate                            : 44.1 KHz\r\nFrame rate                               : 43.066 fps (1024 spf)\r\nCompression mode                         : Lossy\r\nStream size                              : 210 MiB (19%)\r\nDefault                                  : Yes\r\nAlternate group                          : 1","torrent":{"xt":"urn:btih:af7a555dd0c79780d725d72a56d9ce84e61a4281","amp;dn":"Bad+Country%282014%29MPEG-4%5BDaScubaDude%5D","amp;tr":["udp%3A%2F%2Ftracker.leechers-paradise.org%3A6969","udp%3A%2F%2Fzer0day.ch%3A1337","udp%3A%2F%2Fopen.demonii.com%3A1337","udp%3A%2F%2Ftracker.coppersurfer.tk%3A6969","udp%3A%2F%2Fexodus.desync.com%3A6969"],"infoHash":"af7a555dd0c79780d725d72a56d9ce84e61a4281","infoHashBuffer":{"type":"Buffer","data":[175,122,85,93,208,199,151,128,215,37,215,42,86,217,206,132,230,26,66,129]},"announce":[],"urlList":[]}}